<?xml version="1.0" standalone="no"?>
<!DOCTYPE svg PUBLIC "-//W3C//DTD SVG 20010904//EN"
 "http://www.w3.org/TR/2001/REC-SVG-20010904/DTD/svg10.dtd">
<svg version="1.0" xmlns="http://www.w3.org/2000/svg"
 width="640.000000pt" height="640.000000pt" viewBox="0 0 640.000000 640.000000"
 preserveAspectRatio="xMidYMid meet">
<metadata>
Created by potrace 1.14, written by Peter Selinger 2001-2017
</metadata>
<g transform="translate(0.000000,640.000000) scale(0.100000,-0.100000)"
fill="#000000" stroke="none">
<path d="M4514 6375 c-3 -14 -9 -25 -13 -25 -4 0 -22 -28 -40 -62 -18 -35 -46
-85 -62 -113 -16 -27 -38 -67 -49 -87 -11 -21 -51 -91 -88 -156 -38 -64 -71
-124 -75 -132 -4 -8 -15 -28 -25 -45 -10 -16 -33 -56 -50 -87 -18 -31 -61
-107 -97 -169 -36 -61 -65 -113 -65 -115 0 -2 -19 -36 -42 -76 -24 -40 -50
-86 -58 -103 -8 -16 -17 -32 -21 -35 -3 -3 -28 -45 -55 -95 -28 -49 -63 -112
-79 -140 -16 -27 -37 -66 -48 -85 -11 -19 -30 -53 -43 -75 -13 -22 -29 -52
-36 -67 -7 -16 -16 -28 -20 -28 -4 0 -8 -5 -8 -10 0 -11 -132 -246 -149 -266
-5 -7 -8 -14 -5 -17 2 -2 -2 -10 -11 -17 -8 -7 -15 -16 -15 -20 0 -4 -62 -115
-137 -246 -75 -132 -144 -252 -153 -269 -40 -74 -94 -170 -99 -175 -3 -3 -17
-27 -31 -55 -14 -27 -27 -52 -30 -55 -5 -5 -179 -310 -228 -400 -13 -25 -41
-74 -62 -110 -138 -239 -240 -420 -240 -429 0 -6 -4 -11 -10 -11 -5 0 -10 -4
-10 -8 0 -8 -35 -73 -82 -152 -11 -19 -31 -55 -45 -80 -13 -25 -38 -67 -54
-95 -35 -60 -79 -142 -79 -149 0 -3 125 -5 279 -5 l278 1 24 41 c13 23 33 58
44 77 11 20 44 78 73 130 29 52 57 102 62 110 46 74 200 351 200 359 0 6 4 11
9 11 5 0 11 8 14 18 3 9 19 40 35 67 112 194 242 427 242 434 0 5 4 11 8 13 8
3 54 82 111 191 13 26 28 47 33 47 4 0 8 7 8 15 0 9 8 28 19 43 10 15 51 86
91 157 40 72 84 150 98 175 14 25 58 102 99 172 40 70 73 131 73 134 0 4 6 15
14 23 8 9 26 39 40 66 15 28 31 57 36 65 111 189 330 580 330 590 0 5 5 10 10
10 6 0 10 5 10 10 0 6 18 40 40 76 22 36 40 67 40 69 0 2 108 193 240 425 132
232 240 426 240 431 0 5 4 9 8 9 4 0 13 12 19 28 12 26 37 71 79 142 12 19 36
61 53 93 l32 57 -285 0 -286 0 -6 -25z"/>
<path d="M5514 6378 c-4 -13 -10 -25 -14 -28 -3 -3 -20 -30 -36 -60 -16 -30
-31 -57 -34 -60 -3 -3 -11 -16 -18 -30 -6 -14 -16 -32 -22 -40 -5 -8 -73 -127
-151 -265 -77 -137 -146 -256 -151 -262 -6 -7 -7 -13 -2 -13 5 0 4 -4 -2 -8
-6 -4 -24 -32 -40 -62 -40 -72 -72 -130 -156 -274 -37 -65 -68 -122 -68 -127
0 -5 -4 -9 -10 -9 -5 0 -10 -5 -10 -10 0 -6 -55 -108 -123 -228 -68 -119 -134
-237 -148 -262 -13 -25 -27 -47 -30 -50 -4 -3 -22 -33 -40 -68 -19 -35 -38
-71 -44 -80 -5 -10 -48 -85 -95 -167 -47 -83 -89 -158 -95 -167 -5 -9 -20 -34
-31 -55 -36 -65 -64 -114 -124 -218 -31 -55 -68 -120 -82 -145 -14 -25 -74
-130 -133 -235 -60 -104 -118 -208 -130 -230 -12 -22 -45 -78 -72 -125 -27
-47 -52 -92 -56 -100 -4 -8 -15 -28 -25 -45 -10 -16 -31 -51 -45 -77 -15 -27
-39 -69 -54 -95 -14 -27 -35 -61 -45 -78 -10 -16 -21 -37 -25 -45 -3 -8 -16
-31 -28 -50 -12 -19 -35 -60 -52 -90 -16 -30 -40 -72 -52 -92 -11 -21 -30 -55
-42 -75 -12 -21 -25 -43 -30 -49 -5 -6 -6 -14 -2 -17 3 -4 2 -7 -3 -7 -5 0
-18 -17 -29 -37 -10 -21 -27 -49 -36 -63 -9 -14 -19 -35 -23 -47 l-7 -21 1561
0 1560 -1 0 943 0 943 -350 0 -351 0 -34 -59 c-19 -32 -35 -61 -35 -62 0 -2
-40 -76 -89 -163 -49 -88 -92 -169 -95 -180 -6 -19 0 -19 216 -18 123 0 230
-1 238 -3 14 -3 16 -55 15 -450 l0 -447 -897 -2 c-583 -1 -898 2 -898 8 0 6
16 34 35 64 19 30 32 55 28 55 -3 0 1 8 9 18 8 9 30 44 49 77 18 33 44 78 57
100 12 22 28 51 35 65 6 14 18 31 25 39 7 7 21 31 30 52 9 22 20 39 24 39 5 0
8 4 8 10 0 5 13 31 28 57 30 51 69 117 176 303 37 63 71 122 76 130 6 8 13 21
17 29 5 12 41 75 176 311 11 19 39 71 64 115 48 88 59 107 86 147 10 16 16 28
13 28 -3 0 10 25 29 55 19 30 35 56 35 59 0 3 32 59 70 125 39 66 70 125 70
131 0 5 5 10 10 10 6 0 10 5 10 10 0 6 48 95 107 198 120 212 121 212 193 342
29 52 62 107 72 123 11 15 16 27 12 27 -4 0 -1 8 7 18 8 9 19 26 25 37 11 20
181 321 217 385 11 19 31 54 44 77 l24 43 -29 52 c-16 29 -60 109 -97 178 -38
69 -77 141 -88 160 -11 19 -29 52 -39 73 -11 20 -22 37 -23 37 -2 0 -7 -10
-11 -22z"/>
<path d="M3146 6122 c-2 -1 -41 -4 -87 -7 -81 -4 -118 -8 -204 -22 -22 -4 -44
-7 -50 -8 -12 -1 -91 -15 -120 -22 -11 -2 -31 -6 -45 -9 -92 -19 -347 -92
-395 -114 -11 -5 -45 -19 -75 -30 -82 -31 -143 -59 -260 -118 -97 -50 -268
-148 -280 -161 -3 -3 -39 -28 -80 -56 -41 -27 -77 -52 -80 -55 -3 -3 -23 -19
-45 -35 -22 -17 -42 -32 -45 -35 -3 -3 -36 -32 -75 -65 -137 -117 -302 -289
-415 -435 -41 -52 -77 -97 -81 -100 -3 -3 -8 -9 -10 -15 -2 -5 -29 -48 -60
-95 -79 -119 -99 -153 -189 -334 -43 -88 -77 -163 -74 -168 3 -4 1 -8 -4 -8
-5 0 -14 -15 -19 -32 -6 -18 -30 -87 -53 -153 -36 -107 -73 -235 -87 -305 -8
-41 -11 -55 -13 -55 -1 0 -3 -12 -5 -26 -2 -15 -6 -44 -10 -65 -4 -22 -8 -50
-10 -64 -2 -14 -7 -45 -11 -70 -14 -91 -26 -278 -25 -410 1 -221 23 -427 67
-625 9 -38 18 -81 20 -95 3 -14 9 -40 15 -58 6 -18 12 -39 13 -45 15 -78 119
-353 184 -487 59 -122 154 -288 227 -395 38 -55 71 -102 75 -105 3 -3 17 -20
30 -39 89 -128 391 -440 492 -509 13 -9 25 -19 28 -22 3 -3 23 -19 45 -35 22
-17 42 -33 45 -36 9 -11 264 -176 320 -207 180 -98 330 -165 510 -226 69 -24
128 -44 132 -45 4 -1 13 -3 20 -5 27 -9 74 -20 88 -21 9 -1 31 -7 50 -13 19
-6 49 -13 65 -15 17 -3 37 -7 45 -10 8 -3 35 -9 60 -12 81 -11 104 -14 140
-20 111 -16 177 -19 380 -20 200 0 366 8 410 20 8 3 35 7 60 10 25 3 52 7 60
10 8 2 31 6 50 9 19 3 82 17 140 31 160 38 176 42 205 55 11 5 52 19 90 31 39
12 86 29 105 37 19 9 37 16 40 17 73 20 426 205 483 253 9 8 17 12 17 8 0 -4
6 -2 13 4 6 6 48 36 92 67 184 130 395 321 546 493 85 98 199 245 199 258 0 6
4 12 8 14 8 3 40 50 115 169 19 31 58 100 86 153 l51 97 -233 -7 c-127 -3
-254 -7 -280 -8 -40 -1 -52 -7 -72 -31 -13 -17 -24 -34 -25 -38 0 -7 -124
-181 -145 -203 -5 -6 -26 -31 -45 -55 -73 -91 -270 -280 -400 -384 -58 -45
-57 -45 -110 -80 -25 -16 -46 -33 -48 -37 -2 -5 -7 -8 -12 -8 -9 0 -111 -60
-120 -71 -8 -8 -226 -114 -300 -145 -117 -49 -302 -107 -415 -130 -11 -2 -33
-7 -50 -11 -16 -3 -39 -7 -50 -8 -11 -1 -29 -4 -40 -8 -20 -6 -79 -13 -199
-24 -85 -8 -336 -8 -426 0 -133 11 -257 31 -380 62 -36 9 -75 18 -87 20 -35 8
-202 64 -242 81 -20 9 -45 19 -56 23 -11 4 -63 28 -115 53 -52 25 -98 45 -101
44 -4 0 -15 6 -25 15 -11 9 -39 27 -64 40 -25 13 -47 26 -50 29 -3 3 -17 11
-32 19 -15 8 -37 22 -47 33 -11 10 -23 18 -27 18 -7 0 -127 89 -174 129 -14
12 -45 38 -69 59 -376 320 -669 793 -801 1297 -90 341 -105 777 -39 1120 5 28
11 59 13 71 45 233 171 559 305 784 35 58 147 223 178 261 268 330 546 557
888 724 171 83 181 87 325 135 106 35 152 48 230 65 8 2 15 4 15 5 0 1 14 4
30 6 62 11 70 12 70 14 0 1 9 3 20 4 18 2 70 10 150 22 92 14 322 18 475 8
115 -8 160 -8 164 -3 1 2 49 83 106 179 56 96 111 189 121 206 22 37 24 51 7
51 -24 1 -123 15 -129 19 -3 2 -32 6 -65 9 -32 4 -72 9 -89 11 -101 13 -440
26 -449 16z"/>
</g>
</svg>
